<svg id="Layer_1" data-name="Layer 1" xmlns="http://www.w3.org/2000/svg" viewBox="0 0 1200 1200"><defs><style>.cls-1{fill:none;}.cls-2{fill:#52737f;}.cls-3{fill:#364c5a;}.cls-4{fill:#415969;}.cls-5{fill:#5c7781;}.cls-6{fill:#4f6a79;}.cls-7{fill:#c5c5de;}.cls-8{fill:#c7f0f9;}.cls-9{fill:#79be37;}.cls-10{fill:#77be55;}.cls-11{fill:#f6e564;}.cls-12{fill:#b7b7cd;}.cls-13{fill:#e5f2f9;}.cls-14{fill:#486778;}.cls-15{fill:#f9ebf6;}.cls-16{fill:#efcedf;}.cls-17{fill:#ceb3c0;}.cls-18{fill:#86cc00;}.cls-19{fill:#32dbf9;}.cls-20{fill:#f94669;}.cls-21{fill:#aac7d5;}.cls-22{fill:#f9b800;}.cls-23{fill:#f9eff9;}.cls-24{fill:#b8c2ca;}.cls-25{fill:#90a4b0;}.cls-26{fill:#7d8e9b;}.cls-27{fill:#60727d;}.cls-28{fill:#3a4f57;}.cls-29{fill:#41537e;}.cls-30{fill:#334560;}.cls-31{fill:#607a8f;}.cls-32{fill:#475376;}.cls-33{fill:#4d3b33;}.cls-34{fill:#1d8c00;}.cls-35{fill:#52aa00;}.cls-36{fill:#ea4162;}.cls-37{fill:#ec5671;}.cls-38{fill:#ce4579;}.cls-39{fill:#566989;}.cls-40{fill:#4f5e68;}.cls-41{fill:#566571;}.cls-42{fill:#47555e;}.cls-43{fill:#7e9ca6;}.cls-44{fill:#b8cedd;}.cls-45{fill:#85adc8;}.cls-46{fill:#3e5c81;}.cls-47{fill:#425c64;}.cls-48{fill:#738897;}.cls-49{fill:#905f3d;}.cls-50{fill:#a46c46;}.cls-51{fill:#253f5c;}.cls-52{fill:#33434e;}.cls-53{fill:#2e404d;}.cls-54{fill:#3a4b57;}.cls-55{fill:#106c97;}.cls-56{fill:#304550;}.cls-57{fill:#f1e5eb;}.cls-58{fill:#f96a87;}.cls-59{fill:#ddc5d1;}.cls-60{fill:#64c605;}.cls-61{fill:#27b9f8;}.cls-62{fill:#414c6d;}.cls-63{fill:#4f5d88;}.cls-64{fill:#3b5d5a;}.cls-65{fill:#53c7a8;}.cls-66{fill:#2fcab9;}.cls-67{fill:#49af93;}.cls-68{fill:#7f5331;}</style></defs><rect class="cls-1" width="1200" height="1200"/><polygon class="cls-2" points="1042.48 744.77 932.39 749.16 855.22 684.97 948.85 684.24 1042.48 744.77"/><path class="cls-3" d="M855.21,685c-.18,1.65.6,269.1.6,269.1l76.61,86.42,41.23-141.13L932.74,744.48Z"/><rect class="cls-4" x="932.39" y="744.22" width="109.73" height="296.26"/><circle class="cls-5" cx="950.49" cy="774.94" r="6.03"/><circle class="cls-5" cx="969.69" cy="774.94" r="3.84"/><circle class="cls-5" cx="982.86" cy="774.94" r="3.84"/><rect class="cls-5" x="996.58" y="772.75" width="17.01" height="4.39"/><rect class="cls-6" x="943.73" y="792.5" width="89.24" height="10.97"/><rect class="cls-6" x="943.73" y="816.59" width="89.24" height="75.44"/><rect class="cls-6" x="943.73" y="905.11" width="89.24" height="86.41"/><rect class="cls-7" x="759.23" y="147.69" width="293.63" height="315.38"/><rect class="cls-8" x="778.26" y="168.13" width="255.57" height="274.5"/><path class="cls-9" d="M877.45,361c14.36,9.29,1,29.35-8.14,36.07-12.74,9.39-27.53,6.38-42.73,5.62-15.46-.78-35.19,6.46-46.7-7a24.67,24.67,0,0,1-1.62-2.12v-200c6.1-8,16.14-14.19,26-14.68,19.54-1,24.92,19.51,21.16,36.32,13.35-4.49,17.84,6,18,17.93,17.8,1,40.6,9.41,39.8,31.85-.17,4.76-3.8,10.25-3.48,14.51.65,8.48,3.46,2.69,9.55,5.43,8.89,4,8.41,15.23,4.72,23.59C912,316.29,895,361.06,877.45,361Z"/><path class="cls-10" d="M1033.83,312.44V442.63H923.75c-1.93-5.83-1.69-13.15-.57-20.9.85-5.91,1.57-13.28,7.27-15.39s16.22,2,20,6c-.37-23.61,5.24-30.77,26.09-37.9-.85-16.07,11.71-30.44,27.93-29.71-5.67-.26-8-13.15-7.16-17.09,1.36-6.51,7.32-11.38,13-14.21,6-3,13.82-4.68,20.37-2.56A13.57,13.57,0,0,1,1033.83,312.44Z"/><rect class="cls-7" x="916.02" y="158.56" width="19.03" height="292.27"/><path class="cls-11" d="M1033.83,168.13v43.55a41.51,41.51,0,0,1-51.66-40.2c0-1.13.05-2.24.14-3.35Z"/><path class="cls-12" d="M954.62,288.82a2.82,2.82,0,0,1,1.54,3.63h0a2.82,2.82,0,0,1-3.31,2.15L924.77,286a2.81,2.81,0,0,1-1.54-3.63h0a2.81,2.81,0,0,1,3.3-2.15Z"/><path class="cls-13" d="M981.11,269.39a1.07,1.07,0,0,1-.93-.53l-3.5-6a.3.3,0,0,1,.09-.37c.7-.64,1,0,1.17.43.49.81,1,1.62,1.46,2.42.3.5.61,1,.91,1.51s.54,1.13,1,.69a12.63,12.63,0,0,0,1.3-2.6c.7-1.58,1.16-2.47,1.74-3.76.07-.14.68-1.28,1.15-.4a1,1,0,0,1-.07.62l-3.3,7.34a1.06,1.06,0,0,1-.92.63Z"/><path class="cls-13" d="M991,287.09a1.27,1.27,0,0,1-1.11-.64l-4.19-7.15a.35.35,0,0,1,.11-.44c.83-.77,1.15-.05,1.4.52l1.74,2.89,1.09,1.8c.31.53.64,1.36,1.15.82a15.06,15.06,0,0,0,1.56-3.11c.84-1.88,1.39-2.94,2.08-4.49.08-.16.81-1.53,1.37-.48a1.27,1.27,0,0,1-.08.74l-3.94,8.78a1.31,1.31,0,0,1-1.11.76Z"/><path class="cls-13" d="M1001.22,265.28a1.09,1.09,0,0,1-.93-.53l-3.48-5.95a.29.29,0,0,1,.1-.36c.69-.64,1,0,1.16.43.48.8,1,1.6,1.45,2.4l.9,1.5c.26.44.53,1.13,1,.68a12.19,12.19,0,0,0,1.29-2.58c.7-1.57,1.15-2.45,1.73-3.74.06-.13.67-1.26,1.14-.4a1,1,0,0,1-.07.62l-3.27,7.3a1.09,1.09,0,0,1-.92.63Z"/><rect class="cls-14" x="332.31" y="281.29" width="524.49" height="238.1" rx="7.68"/><path class="cls-15" d="M839.88,301.29v198.1a7,7,0,0,1-7.19,6.84H356.42a7,7,0,0,1-7.19-6.84V301.29a7,7,0,0,1,7.19-6.83H832.69A7,7,0,0,1,839.88,301.29Z"/><path class="cls-16" d="M839.88,301.29v7.95H426.13V294.46H832.69A7,7,0,0,1,839.88,301.29Z"/><rect class="cls-17" x="424.48" y="307.59" width="415.4" height="2.47"/><rect class="cls-17" x="423.02" y="294.46" width="4.39" height="211.77"/><rect class="cls-17" x="490.23" y="294.46" width="1.65" height="15.6"/><rect class="cls-17" x="551.4" y="294.46" width="1.65" height="15.6"/><rect class="cls-17" x="613.94" y="294.46" width="1.65" height="15.6"/><rect class="cls-17" x="675.39" y="294.46" width="1.65" height="15.6"/><rect class="cls-17" x="739.03" y="294.46" width="1.65" height="15.6"/><rect class="cls-17" x="799.93" y="294.46" width="1.65" height="15.6"/><rect class="cls-18" x="439.57" y="322" width="23.68" height="4.11"/><rect class="cls-19" x="466.18" y="322" width="22.08" height="4.11"/><rect class="cls-19" x="456.3" y="329.31" width="9.33" height="4.11"/><rect class="cls-19" x="456.3" y="336.08" width="18.65" height="4.11"/><rect class="cls-20" x="456.3" y="362.41" width="18.79" height="4.11"/><rect class="cls-21" x="456.3" y="342.84" width="18.65" height="4.11"/><rect class="cls-21" x="456.3" y="355.83" width="18.65" height="4.11"/><rect class="cls-21" x="456.3" y="349.43" width="47.46" height="4.11"/><rect class="cls-20" x="456.3" y="450.56" width="18.79" height="4.11"/><rect class="cls-21" x="456.3" y="430.99" width="36.94" height="4.11"/><rect class="cls-21" x="456.3" y="443.97" width="53.4" height="4.11"/><rect class="cls-21" x="456.3" y="437.57" width="47.46" height="4.11"/><rect class="cls-20" x="469.1" y="388.75" width="18.79" height="4.11"/><rect class="cls-21" x="469.1" y="369.18" width="54.86" height="4.11"/><rect class="cls-21" x="469.1" y="382.16" width="29.63" height="4.11"/><rect class="cls-21" x="469.1" y="375.76" width="37.67" height="4.11"/><rect class="cls-20" x="481.54" y="416.18" width="18.79" height="4.11"/><rect class="cls-21" x="481.54" y="396.61" width="31.09" height="4.11"/><rect class="cls-21" x="481.54" y="409.59" width="46.08" height="4.11"/><rect class="cls-21" x="481.54" y="403.19" width="37.67" height="4.11"/><rect class="cls-20" x="456.3" y="485.67" width="18.79" height="4.11"/><rect class="cls-21" x="456.3" y="466.1" width="31.09" height="4.11"/><rect class="cls-21" x="456.3" y="479.09" width="46.08" height="4.11"/><rect class="cls-21" x="456.3" y="472.69" width="37.67" height="4.11"/><rect class="cls-21" x="469.1" y="492.44" width="31.09" height="4.11"/><rect class="cls-21" x="469.1" y="499.02" width="24.51" height="4.11"/><rect class="cls-22" x="491.69" y="322" width="39.23" height="4.11"/><rect class="cls-18" x="439.57" y="424.04" width="53.35" height="4.11"/><rect class="cls-19" x="495.8" y="424.04" width="22.08" height="4.11"/><rect class="cls-22" x="521.31" y="424.04" width="39.23" height="4.11"/><rect class="cls-18" x="439.57" y="458.79" width="39.41" height="4.11"/><rect class="cls-19" x="482.82" y="458.79" width="22.08" height="4.11"/><rect class="cls-22" x="508.33" y="458.79" width="11.06" height="4.11"/><rect class="cls-20" x="723.48" y="408.31" width="18.79" height="4.11"/><rect class="cls-21" x="723.48" y="388.75" width="36.94" height="4.11"/><rect class="cls-21" x="723.48" y="401.73" width="53.4" height="4.11"/><rect class="cls-21" x="723.48" y="395.33" width="47.46" height="4.11"/><rect class="cls-20" x="723.48" y="443.43" width="18.79" height="4.11"/><rect class="cls-21" x="723.48" y="423.86" width="31.09" height="4.11"/><rect class="cls-21" x="723.48" y="436.84" width="46.08" height="4.11"/><rect class="cls-21" x="723.48" y="430.44" width="37.67" height="4.11"/><rect class="cls-21" x="736.28" y="450.19" width="31.09" height="4.11"/><rect class="cls-21" x="736.28" y="456.78" width="24.51" height="4.11"/><rect class="cls-21" x="736.28" y="464.09" width="46.63" height="4.11"/><rect class="cls-21" x="736.28" y="470.67" width="38.95" height="4.11"/><rect class="cls-18" x="706.75" y="381.8" width="53.35" height="4.11"/><rect class="cls-19" x="762.98" y="381.8" width="22.08" height="4.11"/><rect class="cls-22" x="788.49" y="381.8" width="39.23" height="4.11"/><rect class="cls-18" x="706.75" y="416.54" width="39.41" height="4.11"/><rect class="cls-19" x="750" y="416.54" width="22.08" height="4.11"/><rect class="cls-22" x="775.51" y="416.54" width="11.06" height="4.11"/><rect class="cls-20" x="723.3" y="349.06" width="18.79" height="4.11"/><rect class="cls-21" x="723.3" y="329.49" width="31.09" height="4.11"/><rect class="cls-21" x="723.3" y="342.48" width="46.08" height="4.11"/><rect class="cls-21" x="723.3" y="336.08" width="37.67" height="4.11"/><rect class="cls-21" x="736.1" y="355.83" width="31.09" height="4.11"/><rect class="cls-21" x="736.1" y="362.41" width="24.51" height="4.11"/><rect class="cls-18" x="706.57" y="322.18" width="39.41" height="4.11"/><rect class="cls-19" x="749.82" y="322.18" width="22.08" height="4.11"/><rect class="cls-22" x="775.33" y="322.18" width="11.06" height="4.11"/><path class="cls-16" d="M425.94,294.46V506.23H356.42a7,7,0,0,1-7.19-6.84V301.29a7,7,0,0,1,7.19-6.83Z"/><rect class="cls-17" x="358.28" y="311.76" width="18.65" height="4.11"/><rect class="cls-17" x="358.28" y="373.93" width="18.65" height="4.11"/><rect class="cls-23" x="358.28" y="302.25" width="18.65" height="4.11"/><rect class="cls-23" x="431.79" y="299.69" width="18.65" height="4.11"/><rect class="cls-23" x="619.79" y="299.69" width="14.81" height="4.11"/><rect class="cls-23" x="746.52" y="299.69" width="14.81" height="4.11"/><rect class="cls-23" x="701.81" y="299.69" width="27.43" height="4.11"/><rect class="cls-23" x="496.17" y="299.69" width="28.53" height="4.11"/><rect class="cls-23" x="557.25" y="299.69" width="21.58" height="4.11"/><rect class="cls-23" x="582.48" y="299.69" width="10.24" height="4.11"/><rect class="cls-23" x="765.91" y="299.69" width="10.24" height="4.11"/><rect class="cls-23" x="358.28" y="354.18" width="18.65" height="4.11"/><rect class="cls-17" x="358.28" y="325.29" width="27.8" height="4.11"/><rect class="cls-17" x="358.28" y="318.34" width="47.46" height="4.11"/><rect class="cls-17" x="358.28" y="367.35" width="47.46" height="4.11"/><rect class="cls-17" x="358.28" y="331.69" width="18.65" height="4.11"/><rect class="cls-17" x="358.28" y="423.13" width="18.65" height="4.11"/><rect class="cls-17" x="358.28" y="436.66" width="33.56" height="4.11"/><rect class="cls-17" x="358.28" y="429.71" width="45.08" height="4.11"/><rect class="cls-17" x="358.28" y="443.06" width="23.32" height="4.11"/><rect class="cls-17" x="358.28" y="360.95" width="24.87" height="4.11"/><rect class="cls-17" x="368.7" y="461.9" width="24.87" height="4.11"/><rect class="cls-17" x="358.28" y="345.22" width="23.41" height="4.11"/><rect class="cls-17" x="358.28" y="338.27" width="37.31" height="4.11"/><rect class="cls-17" x="368.52" y="379.97" width="14.63" height="4.11"/><rect class="cls-17" x="368.52" y="393.5" width="21.8" height="4.11"/><rect class="cls-17" x="368.52" y="386.55" width="37.22" height="4.11"/><rect class="cls-17" x="368.52" y="399.9" width="14.63" height="4.11"/><rect class="cls-17" x="368.52" y="449.19" width="21.8" height="4.11"/><rect class="cls-17" x="368.52" y="455.59" width="14.63" height="4.11"/><rect class="cls-17" x="368.52" y="413.43" width="18.36" height="4.11"/><rect class="cls-17" x="368.52" y="406.48" width="29.26" height="4.11"/><rect class="cls-17" x="691.66" y="294.46" width="1.65" height="211.77"/><path class="cls-24" d="M876.55,839.51a1.54,1.54,0,0,1-.66-.14c-29.47-13.49-55.71-36.42-78-68.16-17.78-25.33-33.1-56.29-45.53-92-21.15-60.79-26.68-115.13-26.73-115.67a1.56,1.56,0,0,1,1.41-1.72,1.59,1.59,0,0,1,1.73,1.41c.05.54,5.55,54.56,26.59,115,19.36,55.63,56.21,128.25,121.83,158.29a1.58,1.58,0,0,1-.65,3Z"/><path class="cls-24" d="M893.56,798a1.67,1.67,0,0,1-.44-.06,190.83,190.83,0,0,1-91.5-57.57c-19.94-22.39-36.22-50.3-48.39-83C732.53,601.83,730.88,551,730.86,550.5a1.58,1.58,0,0,1,1.54-1.62h0a1.57,1.57,0,0,1,1.58,1.53c0,.5,1.66,50.88,22.2,106C775.11,707.06,814.36,772.23,894,794.9a1.58,1.58,0,0,1-.43,3.1Z"/><path class="cls-25" d="M915,1053.8s-4.78,5.69-16.3,5.69c-11,0-16.62-5.69-16.62-5.69v-390H915Z"/><path class="cls-26" d="M861,963.56S856.23,969,844.7,969c-11,0-16.62-5.41-16.62-5.41V592.16H861Z"/><path class="cls-26" d="M426.23,968.22s-4.77,5.69-16.29,5.69c-11,0-16.62-5.69-16.62-5.69V578.17h32.91Z"/><path class="cls-25" d="M370.28,1052.16s-4.78,5.68-16.3,5.68c-11,0-16.62-5.68-16.62-5.68V662.1h32.92Z"/><polygon class="cls-27" points="997.43 640.06 258.25 639.88 316.95 573.78 938.74 573.78 997.43 640.06"/><rect class="cls-28" x="258.36" y="639.61" width="738.96" height="31.27"/><ellipse class="cls-29" cx="224.23" cy="982.7" rx="63.91" ry="18.29"/><ellipse class="cls-30" cx="224.36" cy="991.25" rx="56.42" ry="12.89"/><path class="cls-31" d="M270,986.81c0,10.1-7,18.21-45.81,18.29-37.66.08-45.81-8.19-45.81-18.29s20.51-18.28,45.81-18.28S270,976.71,270,986.81Z"/><polygon class="cls-31" points="299.21 809.52 224.23 810.22 149.25 809.52 178.44 988 223.83 988.72 223.83 988.73 224.23 988.73 224.64 988.73 224.64 988.72 270.03 988 299.21 809.52"/><ellipse class="cls-32" cx="224.23" cy="809.33" rx="75.16" ry="18.29"/><ellipse class="cls-33" cx="224.23" cy="814.09" rx="64.28" ry="13.53"/><path class="cls-34" d="M166.08,738.56c-15.89,6.7-11.72,27.92-18.94,39.37,9.45-1.3,10.2-12.72,16.91-17.26,7.07-4.79,18.64-1.54,26.9-4.57,8.88-3.26,19-14,4.39-17.52-7.71-1.84-21.23-2-28.53.71Z"/><path class="cls-34" d="M224.23,816.72a2.51,2.51,0,0,1-.76-.12,2.62,2.62,0,0,1-1.75-3.28c.17-.58,17.36-58.34-3.9-105.13-8.58-18.86-16.64-31.19-23.74-42.08-10.84-16.58-19.39-29.68-22.57-56a2.63,2.63,0,0,1,5.23-.63c3,25.08,10.87,37.1,21.74,53.74,7.21,11,15.38,23.55,24.12,42.78,22.11,48.62,4.89,106.4,4.15,108.84A2.64,2.64,0,0,1,224.23,816.72Z"/><path class="cls-34" d="M228.26,801.47c0-10.43,2.77-18.06,6.58-27.84,4-10.38,8.83-20.5,13.33-30.52,3.73-8.32,10.14-17.92,21.05-18.45,10.56-.51,14.12,10.4,23.28,13.29-1.45,12.18-22.58,26.72-32.08,33.54-10.77,7.75-29.08,14.93-31.43,30Z"/><path class="cls-35" d="M292.44,764.78c2.68-5.7,21.44-15.91,19.39-22.45s-13.22-2.21-17.93-3.59c-5.74-1.69-9.64-7.83-14.6-11-12.54-7.92-21.47-2.9-27.56,9.05C270.34,723,280.75,757,292.44,764.78Z"/><path class="cls-35" d="M228.26,790.5c-2.91-11.14-16.36-26.65-25.42-36-12.11-12.52-27.22-12.23-43.05-9.42,3-8.58,13.84-12.3,21.65-13.07,6.84-.68,24.16-1.88,29.06.16,21.12,8.8,15,40.15,18.49,57.63Z"/><path class="cls-36" d="M188.8,615c-3.47,4.8-13.65,6.77-17.87,3.52-5.33-4.09-7.46-14.14-8.33-20.39-.41-3-1.77-11.56,2.19-13.08s5.44,5.52,8.14,6.43c.85-5.6,3.93-10.61,10-6.64,4.9,3.21,4,9.79,4.36,14.94C187.65,604.65,191.94,610.65,188.8,615Z"/><path class="cls-37" d="M190.59,604.85c-18.25,8.87-21.32-13.23-21.28-25.94,0-3.41,1.08-10.58,5.91-10.85,5.74-.31,2.55,5.73,8.9,2.22,4.41-2.43,6.39-6.28,11.54-1.91,3.67,3.11,4.07,8.25,4.25,12.73C200.25,589.69,199.19,600.67,190.59,604.85Z"/><path class="cls-38" d="M191.8,582.37c-2.84,2.5-7.85,7.35-11.63,4.16-3.29-2.78-.32-7.66-1.11-10.91-.84-3.44-3.67-4.62-6.14-7-6.06-5.79-6.93-10.34-3.73-18.25,2.13-5.27,7.92-19,15.92-14.12,5.66,3.44,3.27,13.46,1,18.3,3.37-3.68,6.42-6.9,8.83-1.44,1.84,4.16-.31,8.58-3.2,11.44a6.45,6.45,0,0,1,5.85-1.48C199.82,569.28,196.62,578.13,191.8,582.37Z"/><path class="cls-37" d="M189.47,564.65c-1.75,4-2.73,8.34-5.89,2.28-1.59-3-.94-8.73-.7-12,.37-5.28,2.1-18.76,10.36-16.52.28,3.54-.65,6.41-.93,9.71,7.48-2.5,6.47,3.61,2.55,8.83C192.77,559.73,190.89,561.4,189.47,564.65Z"/><path class="cls-35" d="M174.86,622.25S162.79,619.69,161,608s4-2.93,7.68,3.65S178.51,619.69,174.86,622.25Z"/><path class="cls-35" d="M174.49,621.72s12.24,1.56,17.82-8.88-2.83-4.09-8.46.92S171.88,618.1,174.49,621.72Z"/><path class="cls-39" d="M286.83,979.94s-2.52,19.47-60.38,19.2h-4.06c-57.87.27-60.76-19.2-60.76-19.2-2.37-1.84-1.52,15.45,5.08,22.1,12.48,12.56,51.77,12.69,58,12.45,6.28.24,44.89.11,57.37-12.45C288.72,995.39,289.2,978.1,286.83,979.94Z"/><path class="cls-40" d="M879.41,723.31c-13.81,4.61-.81,8-1.92,24-1,15.18-9,42.21-16.41,54.91A163.87,163.87,0,0,1,871,831c7.14-19.5,14.43-42.59,16.2-55.45C889.71,757,892.29,719,879.41,723.31Z"/><path class="cls-41" d="M855,818.86S843.08,801,851.57,785s21.9-9.32,28.25-14.73,17.79,9,13.35,22-4.24,23-15.33,26.13S855,818.86,855,818.86Z"/><path class="cls-41" d="M850.32,800.81S824,785.8,832,785.94c6.65.12,23.09-8.55,24,1.42S850.26,798.15,850.32,800.81Z"/><path class="cls-42" d="M787.32,1035a62.74,62.74,0,0,1,2.91-8.54c5.3-12.46,15-28.39,18.11-40.42,9.12-35.07-6.41-38.94-20.4-38.77,0,0,3.1,25.42-.36,48-2.51,16.4-8.41,36.38-9.41,46.46-.08.38-.15.75-.2,1.12-.5,3.38,0,7.63,4.91,9.36,7.62,2.69,9.68-8.33,5.16-8.56-2.75-.13-1.36-4.46-1-7C787.16,1036.06,787.24,1035.53,787.32,1035Z"/><path class="cls-41" d="M901.2,723.86c-13.81,4.62-.81,8-1.92,24s-9.89,45.18-17.6,56.86-23.84,5.57-28.1,15.16c0,0-15,42.3-30.26,70.64s-25.76,49.56-31.73,50.7C784,942.7,774.9,935,770.84,929.52a32.4,32.4,0,0,1-2-35.69c4.1-6.81,8.13-11.21,12.49-17.52,5.66-8.19,7-16.67,5.3-22.82-2-7-9.83-12-14.6-3.66-3.38,5.93,4.49,7.93,2.61,14.3-1.83,6.17-7.27,12.38-11.07,17.36-11.46,15-15.24,33-6.17,50.09,12.56,23.67,25.44,19.36,30.22,31.23s13.45,19.65,13.76,53.1-1.3,47.06,1.23,50.91a.79.79,0,0,0,.27.24,7.43,7.43,0,0,0,3.73,2.68c7.62,2.69,9.68-8.34,5.15-8.56-2.74-.14-1.36-4.46-1-7v0a157.82,157.82,0,0,0,3.93-22.57c4.13-36,16.93-64.33,25-81s35.6-76.77,44.11-96.45,22.53-59.47,25.08-78S914.08,719.56,901.2,723.86Z"/><path class="cls-43" d="M836.5,585.83s1.83-14.18,11-18.3,22.87-4.12,34.31,3.2,38.43,30.2,8.69,36.61C865.82,612.65,838.33,594.52,836.5,585.83Z"/><path class="cls-44" d="M847.71,567.46l-.23-3.66s2.06-2.52,4.57-2.06,10.53,3.43,10.07,6.17-2.29,2.52-2.29,2.52S852.32,565.32,847.71,567.46Z"/><path class="cls-45" d="M568.14,983c10.34,5.71,20.38-1.59,23.84-20.25,2-10.58,7.86-13.31,5.06-25.59C589.91,906,548.36,972.06,568.14,983Z"/><path class="cls-45" d="M658.93,983.87a18.93,18.93,0,0,0,20.42-17.64c.74-9.9-16.8-27.31-26.64-30.64-16.81-5.68-19,11-9.15,26.33C647.2,967.58,645,982.77,658.93,983.87Z"/><path class="cls-46" d="M526.3,826.13S548.16,934,558.13,957s9.28,24.38,23.25,19.44S614,818.92,614,818.92Z"/><path class="cls-46" d="M698.1,826.64S688,935.32,681,958.8,665.92,980,653,975.92,618.7,824.84,618.7,824.84Z"/><ellipse class="cls-27" cx="627.11" cy="1112.38" rx="9.14" ry="14.22"/><ellipse class="cls-47" cx="621.62" cy="1112.25" rx="9.14" ry="14.63"/><rect class="cls-48" x="606.34" y="860.61" width="26.33" height="154.35"/><path class="cls-27" d="M740.81,820.56s6.58-24.14-46.09-23c-45.6,1-69.59,2.86-75.21,3.35-5.62-.49-29.61-2.4-75.21-3.35-52.67-1.1-46.09,23-46.09,23-2.74,6-.54,13.17,15.91,27.43,14.33,12.42,86.84-2.18,105.39-6.18,18.55,4,91.06,18.6,105.39,6.18C741.36,833.73,743.55,826.59,740.81,820.56Z"/><path class="cls-28" d="M736.15,819.46c.64,23-91.69,11.92-114.77,8.78v-.52l-1.87.27-1.86-.27v.52c-23.09,3.14-115.42,14.27-114.78-8.78.74-26.33-20.48,16.83-13.16,34.38,7.2,17.3,24.38,31,129.8,22.35,105.42,8.69,122.6-5.05,129.81-22.35C756.63,836.29,735.42,793.13,736.15,819.46Z"/><path class="cls-48" d="M613.76,998.31c-12.62,8.78-56,14.82-66.94,30.73-12.46,18.06-37.85,43.34-46.63,45.53s3.61,14.66,17.56,7.68c15.36-7.68,41.69-43.89,51.57-48.27s62.54-17.56,56-25.79C617,997.87,617.27,995.87,613.76,998.31Z"/><path class="cls-48" d="M625.65,998.31c12.62,8.78,56,14.82,66.93,30.73,12.46,18.06,37.86,43.34,46.64,45.53s-3.61,14.66-17.56,7.68c-15.36-7.68-41.7-43.89-51.57-48.27s-62.54-17.56-56-25.79C622.38,997.87,622.13,995.87,625.65,998.31Z"/><circle class="cls-47" cx="516.65" cy="1088.11" r="14.63" transform="translate(-377.07 280.54) rotate(-22.5)"/><circle class="cls-47" cx="722.93" cy="1088.11" r="14.63" transform="translate(-557.67 829.89) rotate(-45)"/><path class="cls-48" d="M627.47,1095.79a5.12,5.12,0,0,1-5.12,5.12H616.5a4.94,4.94,0,0,1-4.94-4.94v-90.52h15.91Z"/><path class="cls-49" d="M467.64,635.67s28.53,2.56,46.81-18.28S534.2,571.3,534.2,571.3l-49.37,13.17-17.19,31.82Z"/><path class="cls-49" d="M769,635.67s-28.53,2.56-46.82-18.28-19.75-46.09-19.75-46.09l49.38,13.17L769,616.29Z"/><path class="cls-50" d="M471.66,491.93S440.21,568,438.74,586.3s17.56,43.89,25.61,49,24.87-5.12,29.26-11,26.33-62.9,30-81.19S482.63,480.23,471.66,491.93Z"/><path class="cls-50" d="M764.39,491.93S795.85,568,797.31,586.3s-17.55,43.89-25.6,49-24.87-5.12-29.26-11-26.33-62.9-30-81.19S753.42,480.23,764.39,491.93Z"/><path class="cls-51" d="M718.77,737.72,666.1,724.55,619.51,742l-46.59-17.47-52.67,13.17s-15.36,32.92-9.87,56S542.2,820,569.63,820a284.88,284.88,0,0,1,46.56,4.28l0,1.24s1.17-.25,3.27-.65c2.1.4,3.28.65,3.28.65l0-1.24A284.88,284.88,0,0,1,669.39,820c27.43,0,53.77-3.29,59.25-26.33S718.77,737.72,718.77,737.72Z"/><path class="cls-52" d="M533.15,919.81a3.84,3.84,0,0,1-.35-7.66L578.52,907,613,871.47a3.84,3.84,0,1,1,5.51,5.35l-35.47,36.57a3.81,3.81,0,0,1-2.4,1.15l-45,4.79C540.18,920.34,533.27,919.81,533.15,919.81Z"/><path class="cls-53" d="M639.63,885.61a3,3,0,0,1-3,3H602.37a3,3,0,0,1-3-3v-115h40.23Z"/><path class="cls-54" d="M555.34,913.68a7,7,0,0,1-6.32,7.61l-14.75,1.35a7,7,0,0,1-7.61-6.32h0a7,7,0,0,1,6.32-7.61l14.75-1.35a7,7,0,0,1,7.61,6.32Z"/><path class="cls-50" d="M658.82,410.55l-9.75-17.34-.55-13v-26l-24.43-17.89,0-8.65L619,332l-5.1-4.31.08,8.48-25,18.06v26l-.54,13-9.75,17.34-.11.05q.79.87,1.53,1.8a29.68,29.68,0,0,1,26.43,2.69A29.72,29.72,0,0,1,635,418.32a29.76,29.76,0,0,1,21.06-4.87,32.88,32.88,0,0,1,2.8-2.86Z"/><path class="cls-50" d="M685.85,297.1a23,23,0,0,0-.17-2.74c-.28-2.18-.58-3.43-2.62-4.47-.43-.21-5.8-1.48-5.95-1l-3.7,11.26L661.47,324c2.71,1.53,5.37,4,8.51,2.58s5.09-5.41,7.12-8.09C681.75,312.33,685.85,304.94,685.85,297.1Z"/><path class="cls-50" d="M551.59,297.1a21.11,21.11,0,0,1,.17-2.74c.28-2.18.57-3.43,2.62-4.47.43-.21,5.8-1.48,6-1l3.7,11.26L576,324c-2.72,1.53-5.37,4-8.52,2.58s-5.08-5.41-7.12-8.09C555.68,312.33,551.58,304.94,551.59,297.1Z"/><path class="cls-50" d="M675.58,255.93a35.5,35.5,0,0,0-11.74-19.15L653.43,228a35.41,35.41,0,0,0-14.84-7.4l-11.89-2.75a35.5,35.5,0,0,0-16,0l-11.89,2.75A35.47,35.47,0,0,0,584,228l-10.4,8.74a35.46,35.46,0,0,0-11.75,19.15l-2.37,10.23a55.45,55.45,0,0,0-1.45,12.64v5.33a54.24,54.24,0,0,0,1.62,13.18l4.88,19.51L574.3,339l14.09,20.05,15.72,15.72c1,1.05,2.4,2.29,3.86,2.54l10.72,1.76,10.79-1.77c1.46-.24,2.81-1.48,3.86-2.53l15.73-15.72L663.15,339l9.75-22.21,4.64-18.56a62.11,62.11,0,0,0,1.86-15.12v-6.68a35.48,35.48,0,0,0-.91-8Z"/><path class="cls-55" d="M778.53,507.84s-10.06,27.25-34.2,38.22-49.74.74-49.74.74l-24.14-38L622,509.4v.09l-3.21,0-3.19,0v-.09l-48.47-.65L543,546.8s-25.6,10.23-49.74-.74S459,507.84,459,507.84c2.93-5.85,28.35-78.64,33.47-82.29s25.14-11.05,48.83-18.65c12.06-3.88,28.11-6.39,42.76-8,9.39,5.11,21.48,8.19,34.68,8.19s25.29-3.08,34.7-8.19c14.66,1.62,30.7,4.14,42.76,8,23.69,7.6,43.7,15,48.82,18.65S775.6,502,778.53,507.84Z"/><path class="cls-56" d="M727.21,563.36c-10.38-70.05-74.93-85.91-101.82-89.48a39.21,39.21,0,0,0-5.87-.33c-3.11.1-5.89.33-5.89.33-26.89,3.57-91.44,19.43-101.81,89.48-13.17,88.87-21.4,149.76-19.75,162.93s16.45,46.08,67.47,56c30.07,5.82,49.27,5.92,60,5,10.71.9,29.9.8,60-5,51-9.88,65.83-42.79,67.48-56S740.37,652.23,727.21,563.36Z"/><polygon class="cls-47" points="592.65 736.35 600.55 708.93 628.25 702.08 648.03 722.63 640.12 750.04 612.43 756.9 592.65 736.35"/><path class="cls-28" d="M677.3,253.32a34.94,34.94,0,0,0-10.4-18.5l-9.22-8.44a30.44,30.44,0,0,0-13.15-7.15L634,216.58c-4.65-1.17-26.24-.8-30.89.37l-10.53,2.65a30.51,30.51,0,0,0-13.14,7.15l-9.22,8.45a34.82,34.82,0,0,0-10.41,18.5l-2.1,9.88a59,59,0,0,0-1.28,12.22v5.14a57.33,57.33,0,0,0,1.43,12.74l8.71,27.08,12.62,18.65,11.71,14.27,9.69,9.87c.93,1,7.47,6.48,8.77,6.71l9.49,1.71,9.56-1.71c1.29-.23,16.78-14.47,17.71-15.48l11-12.62,11-15.91,6.86-14.09L679,294.23a65.81,65.81,0,0,0,1.65-14.62v-6.45a36.63,36.63,0,0,0-.82-7.75Z"/><rect class="cls-57" x="330.74" y="150.61" width="61.45" height="81.2" transform="translate(-41.3 120.53) rotate(-17.93)"/><circle class="cls-58" cx="350.12" cy="157.56" r="2.93"/><rect class="cls-59" x="332.23" y="179.33" width="10.89" height="2.4" transform="translate(-39.44 114.22) rotate(-18.16)"/><rect class="cls-59" x="330.62" y="173.06" width="27.71" height="2.4" transform="translate(-37.15 116.02) rotate(-18.16)"/><rect class="cls-59" x="341.18" y="206.62" width="10.89" height="2.4" transform="translate(-47.5 118.37) rotate(-18.16)"/><rect class="cls-59" x="343.43" y="212.77" width="19.59" height="2.4" transform="translate(-49.09 120.73) rotate(-18.16)"/><rect class="cls-59" x="342" y="207.87" width="26.32" height="2.4" transform="translate(-47.47 121.09) rotate(-18.16)"/><rect class="cls-59" x="344.74" y="217.26" width="13.61" height="2.4" transform="translate(-50.57 120.43) rotate(-18.16)"/><rect class="cls-59" x="339.07" y="181.18" width="8.54" height="2.4" transform="translate(-39.74 116.08) rotate(-18.16)"/><rect class="cls-59" x="341.43" y="188.04" width="12.73" height="2.4" transform="translate(-41.65 117.8) rotate(-18.16)"/><rect class="cls-59" x="339.94" y="182.78" width="21.73" height="2.4" transform="translate(-39.87 118.48) rotate(-18.16)"/><rect class="cls-59" x="342.7" y="192.24" width="8.54" height="2.4" transform="translate(-43 117.75) rotate(-18.16)"/><rect class="cls-59" x="345.11" y="199.41" width="10.72" height="2.4" transform="translate(-45.06 119.2) rotate(-18.16)"/><rect class="cls-59" x="343.68" y="194.56" width="17.08" height="2.4" transform="translate(-43.47 119.51) rotate(-18.16)"/><rect class="cls-57" x="188.69" y="214.46" width="69.03" height="52.24" transform="translate(-38.04 439.21) rotate(-84.39)"/><circle class="cls-60" cx="224.85" cy="213.15" r="2.93"/><rect class="cls-59" x="210.14" y="220.09" width="2.25" height="10.21" transform="translate(-36.36 409.66) rotate(-83.51)"/><rect class="cls-59" x="207.1" y="246.83" width="2.25" height="10.2" transform="translate(-65.62 430.36) rotate(-83.51)"/><rect class="cls-59" x="210.31" y="250.57" width="2.25" height="18.36" transform="translate(-70.54 440.48) rotate(-83.51)"/><rect class="cls-59" x="208.21" y="249.05" width="2.25" height="13.27" transform="translate(-68.36 434.79) rotate(-83.51)"/><rect class="cls-59" x="203.75" y="259.55" width="2.25" height="5.95" transform="translate(-79.12 436.43) rotate(-83.51)"/><rect class="cls-59" x="208.89" y="224.84" width="2.25" height="8" transform="translate(-41.1 411.66) rotate(-83.51)"/><rect class="cls-59" x="210" y="230.46" width="2.25" height="11.93" transform="translate(-47.64 419.48) rotate(-83.51)"/><rect class="cls-59" x="206.86" y="229.87" width="2.25" height="4.73" transform="translate(-46.27 412.65) rotate(-83.51)"/><rect class="cls-59" x="213.78" y="230.21" width="2.25" height="20.33" transform="translate(-48.21 426.75) rotate(-83.51)"/><rect class="cls-59" x="207.83" y="242.13" width="2.25" height="10.04" transform="translate(-60.22 426.85) rotate(-83.51)"/><rect class="cls-59" x="211.22" y="235.71" width="2.25" height="16.01" transform="translate(-53.8 427.16) rotate(-83.51)"/><rect class="cls-57" x="238.61" y="336.46" width="48.2" height="36.47" transform="matrix(0.31, -0.95, 0.95, 0.31, -155.7, 495.27)"/><circle class="cls-61" cx="268.19" cy="336.59" r="2.93"/><rect class="cls-59" x="255.58" y="341.68" width="1.5" height="6.81" transform="translate(-148.45 489.79) rotate(-73.07)"/><rect class="cls-59" x="261.31" y="335.65" width="1.5" height="17.33" transform="translate(-143.66 494.73) rotate(-73.07)"/><rect class="cls-59" x="250.34" y="358.86" width="1.5" height="6.81" transform="translate(-168.6 496.96) rotate(-73.07)"/><rect class="cls-59" x="251.51" y="361.66" width="1.5" height="12.25" transform="translate(-173.05 501.99) rotate(-73.07)"/><rect class="cls-59" x="254.26" y="357.74" width="1.5" height="16.46" transform="translate(-169.37 503.34) rotate(-73.07)"/><rect class="cls-59" x="249.04" y="365.22" width="1.5" height="8.51" transform="translate(-176.42 500.83) rotate(-73.07)"/><rect class="cls-59" x="257.62" y="349.2" width="1.5" height="7.96" transform="translate(-154.74 497.48) rotate(-73.07)"/><rect class="cls-59" x="255.69" y="352.36" width="1.5" height="5.34" transform="translate(-157.89 496.95) rotate(-73.07)"/><rect class="cls-59" x="254.9" y="356.6" width="1.5" height="6.7" transform="translate(-163.16 499.68) rotate(-73.07)"/><ellipse class="cls-62" cx="348.38" cy="618.97" rx="34.72" ry="10.26"/><ellipse class="cls-63" cx="348.38" cy="617.22" rx="34.72" ry="10.26"/><path class="cls-64" d="M367.38,615.18c0,3-8.37,6.05-18.74,6.05S330,618.1,330,615.11s8.27-5,18.64-5S367.38,612.19,367.38,615.18Z"/><path class="cls-65" d="M359.35,597.44l6.36-2.05c5.43,1.48,9.68,1.23,10.16-2.37l1.31-9.76c.48-3.59-1-8-7.94-6.73l-6.84-1.87a11,11,0,0,0-2.86,0,8.86,8.86,0,0,1,8.73-4.14l6.84.91a8.89,8.89,0,0,1,7.63,10L381,594.59a8.89,8.89,0,0,1-10,7.63l-6.85-.92a8.83,8.83,0,0,1-6.41-4.2A11.92,11.92,0,0,0,359.35,597.44Z"/><path class="cls-66" d="M373.14,556.73l-24.47.23-24.48-.23L330,615h.07c.77,3.12,10.67,5.59,18.6,5.59s17.83-2.47,18.6-5.59h0Z"/><path class="cls-67" d="M324.13,556.67c0,3.3,11,6,24.54,6s24.53-2.67,24.53-6-11-6-24.53-6S324.13,553.37,324.13,556.67Z"/><ellipse class="cls-68" cx="348.67" cy="558.22" rx="20.99" ry="4.42"/></svg>