<svg id="Layer_1" data-name="Layer 1" xmlns="http://www.w3.org/2000/svg" viewBox="0 0 120 104.68"><defs><style>.cls-1{fill:#3d4545;fill-rule:evenodd;}@media (prefers-color-scheme: dark){.cls-1 {fill: white;}}</style></defs><path class="cls-1" d="M140.56,152.71A63.55,63.55,0,0,0,81,194.14h23.74a42.08,42.08,0,0,1,71.64,0H201L140.56,89.46l-40.93,70.9a67,67,0,0,1,7.87-5L140.56,98.1l53,91.72h-14.8a46.4,46.4,0,0,0-76.32,0H87.57a59.23,59.23,0,0,1,53-32.79,59.84,59.84,0,0,1,11.56,1.13l9.34,1.85-20.9-36.2-14.21,24.63c1.81-.38,3.66-.69,5.52-.93l8.69-15L153,153.92a64.13,64.13,0,0,0-12.4-1.21Z" transform="translate(-81 -89.46)"/></svg>
